<svg width="698.0025634765625px" height="189.235009765625px" xmlns="http://www.w3.org/2000/svg" viewBox="-99.00128173828125 -19.617504882812497 698.0025634765625 189.235009765625" style="background: none;" preserveAspectRatio="xMidYMid"><defs><linearGradient id="editing-outline-gradient" x1="-0.41354545764260087" x2="1.4135454576426008" y1="0.09326335692419985" y2="0.9067366430758002"><stop offset="0" stop-color="#4c5cdb"></stop><stop offset="1" stop-color="#80d0ff"></stop></linearGradient><filter id="editing-outline" x="-100%" y="-100%" width="300%" height="300%"><feMorphology in="SourceGraphic" operator="dilate" radius="8" result="outline"></feMorphology><feComposite operator="out" in="outline" in2="SourceAlpha"></feComposite></filter></defs><g filter="url(#editing-outline)"><g transform="translate(-0.7000102996826172, 117.26499938964844)"><path d="M10.58 0L10.58-78.89L21.51-78.89L21.51 0L10.58 0ZM63.94 1.38L63.94 1.38Q50.03 1.38 43.01-6.38L43.01-6.38L43.01-6.38Q36.00-14.15 36.00-30.25L36.00-30.25L36.00-30.25Q36.00-46.34 43.01-54.11L43.01-54.11L43.01-54.11Q50.03-61.87 63.94-61.87L63.94-61.87L63.94-61.87Q77.86-61.87 84.87-54.11L84.87-54.11L84.87-54.11Q91.89-46.34 91.89-30.25L91.89-30.25L91.89-30.25Q91.89-14.15 84.87-6.38L84.87-6.38L84.87-6.38Q77.86 1.38 63.94 1.38L63.94 1.38ZM63.94-7.02L63.94-7.02Q73.14-7.02 77.28-12.36L77.28-12.36L77.28-12.36Q81.42-17.71 81.42-29.79L81.42-29.79L81.42-30.71L81.42-30.71Q81.42-42.78 77.28-48.13L77.28-48.13L77.28-48.13Q73.14-53.48 63.94-53.48L63.94-53.48L63.94-53.48Q54.74-53.48 50.60-48.13L50.60-48.13L50.60-48.13Q46.46-42.78 46.46-30.71L46.46-30.71L46.46-29.79L46.46-29.79Q46.46-17.71 50.60-12.36L50.60-12.36L50.60-12.36Q54.74-7.02 63.94-7.02L63.94-7.02ZM125.58 0L125.58-69.34L98.44-69.34L98.44-78.89L163.65-78.89L163.65-69.34L136.50-69.34L136.50 0L125.58 0ZM207.23 0L207.23-78.89L245.64-78.89L245.64-78.89Q257.49-78.89 263.81-72.34L263.81-72.34L263.81-72.34Q270.13-65.78 270.13-54.86L270.13-54.86L270.13-54.86Q270.13-43.70 263.52-36.97L263.52-36.97L263.52-36.97Q256.91-30.25 245.64-30.25L245.64-30.25L218.16-30.25L218.16 0L207.23 0ZM218.16-39.79L245.06-39.79L245.06-39.79Q251.50-39.79 255.30-43.82L255.30-43.82L255.30-43.82Q259.10-47.84 259.10-54.74L259.10-54.74L259.10-54.74Q259.10-61.76 255.53-65.55L255.53-65.55L255.53-65.55Q251.97-69.34 245.06-69.34L245.06-69.34L218.16-69.34L218.16-39.79ZM306.82 1.38L306.82 1.38Q292.91 1.38 285.89-6.38L285.89-6.38L285.89-6.38Q278.88-14.15 278.88-30.25L278.88-30.25L278.88-30.25Q278.88-46.34 285.89-54.11L285.89-54.11L285.89-54.11Q292.91-61.87 306.82-61.87L306.82-61.87L306.82-61.87Q320.74-61.87 327.75-54.11L327.75-54.11L327.75-54.11Q334.77-46.34 334.77-30.25L334.77-30.25L334.77-30.25Q334.77-14.15 327.75-6.38L327.75-6.38L327.75-6.38Q320.74 1.38 306.82 1.38L306.82 1.38ZM306.82-7.02L306.82-7.02Q316.02-7.02 320.16-12.36L320.16-12.36L320.16-12.36Q324.30-17.71 324.30-29.79L324.30-29.79L324.30-30.71L324.30-30.71Q324.30-42.78 320.16-48.13L320.16-48.13L320.16-48.13Q316.02-53.48 306.82-53.48L306.82-53.48L306.82-53.48Q297.62-53.48 293.48-48.13L293.48-48.13L293.48-48.13Q289.34-42.78 289.34-30.71L289.34-30.71L289.34-29.79L289.34-29.79Q289.34-17.71 293.48-12.36L293.48-12.36L293.48-12.36Q297.62-7.02 306.82-7.02L306.82-7.02ZM346.50 0L346.50-60.49L354.20-60.49L355.35-51.41L356.04-51.41L356.04-51.41Q357.77-55.89 361.22-58.88L361.22-58.88L361.22-58.88Q364.67-61.87 370.30-61.87L370.30-61.87L370.30-61.87Q372.25-61.87 373.81-61.47L373.81-61.47L373.81-61.47Q375.36-61.07 375.71-60.95L375.71-60.95L375.71-51.18L371.45-51.18L371.45-51.18Q365.01-51.18 360.81-47.44L360.81-47.44L360.81-47.44Q356.62-43.70 356.62-35.77L356.62-35.77L356.62 0L346.50 0ZM398.48 1.27L398.48 1.27Q392.27 1.27 389.39-2.42L389.39-2.42L389.39-2.42Q386.52-6.10 386.52-11.50L386.52-11.50L386.52-52.09L379.16-52.09L379.16-60.49L386.63-60.49L388.82-77.28L396.64-77.28L396.64-60.49L406.87-60.49L406.87-52.09L396.64-52.09L396.64-12.42L396.64-12.42Q396.64-7.02 401.70-7.02L401.70-7.02L406.87-7.02L406.87-0.35L406.87-0.35Q405.38 0.35 402.96 0.81L402.96 0.81L402.96 0.81Q400.55 1.27 398.48 1.27L398.48 1.27ZM433.21 1.38L433.21 1.38Q425.39 1.38 419.29-2.30L419.29-2.30L419.29-2.30Q413.20-5.98 413.20-15.64L413.20-15.64L413.20-15.64Q413.20-27.26 423.55-31.57L423.55-31.57L423.55-31.57Q433.90-35.88 453.45-35.88L453.45-35.88L453.45-42.55L453.45-42.55Q453.45-47.84 450.46-50.66L450.46-50.66L450.46-50.66Q447.47-53.48 439.65-53.48L439.65-53.48L439.65-53.48Q432.29-53.48 429.12-50.72L429.12-50.72L429.12-50.72Q425.96-47.96 425.96-43.93L425.96-43.93L425.96-42.55L416.19-42.55L416.19-42.55Q416.07-43.24 416.07-45.08L416.07-45.08L416.07-45.08Q416.07-53.13 422.74-57.50L422.74-57.50L422.74-57.50Q429.41-61.87 440.57-61.87L440.57-61.87L440.57-61.87Q451.84-61.87 457.70-57.16L457.70-57.16L457.70-57.16Q463.57-52.44 463.57-43.82L463.57-43.82L463.57-11.04L463.57-11.04Q463.57-8.97 464.72-7.99L464.72-7.99L464.72-7.99Q465.87-7.02 467.59-7.02L467.59-7.02L472.19-7.02L472.19-0.46L472.19-0.46Q469.20 0.92 464.37 0.92L464.37 0.92L464.37 0.92Q460.46 0.92 457.82-1.44L457.82-1.44L457.82-1.44Q455.17-3.80 454.25-7.71L454.25-7.71L453.45-7.71L453.45-7.71Q450.34-3.45 444.99-1.04L444.99-1.04L444.99-1.04Q439.65 1.38 433.21 1.38L433.21 1.38ZM435.85-7.02L435.85-7.02Q440.34-7.02 444.36-8.86L444.36-8.86L444.36-8.86Q448.39-10.70 450.92-14.32L450.92-14.32L450.92-14.32Q453.45-17.94 453.45-23.12L453.45-23.12L453.45-27.48L453.45-27.48Q438.61-27.48 431.19-25.13L431.19-25.13L431.19-25.13Q423.78-22.77 423.78-16.21L423.78-16.21L423.78-16.21Q423.78-11.27 426.82-9.14L426.82-9.14L426.82-9.14Q429.87-7.02 435.85-7.02L435.85-7.02ZM480.70 0L480.70-83.15L490.82-83.15L490.82 0L480.70 0Z" fill="url(#editing-outline-gradient)"></path></g></g><style>text {
  font-size: 64px;
  font-family: Arial Black;
  dominant-baseline: central;
  text-anchor: middle;
  }</style></svg>